<?xml version="1.0" encoding="utf-8"?>
<!-- Generator: Adobe Illustrator 24.2.0, SVG Export Plug-In . SVG Version: 6.00 Build 0)  -->
<svg version="1.1" id="Layer_1" xmlns="http://www.w3.org/2000/svg" xmlns:xlink="http://www.w3.org/1999/xlink" x="0px" y="0px"
	 viewBox="0 0 264.9 96.1" style="enable-background:new 0 0 264.9 96.1;" xml:space="preserve">
<style type="text/css">
	.st0{fill:#FFFFFF;}
</style>
<g>
	<path class="st0" d="M105.6,53.8c-4,6-3.8,10.7-3.5,14.7c-0.3,1.2-0.1,2.3-2.2,2.3c-3.1-0.3-6.1-3-7.5-7.6l-3.6,4.1
		C81.3,76,74.4,84.6,72.9,85.5c-0.8,0.8-4.9,1.1-5.5,1.1c-3.7,0.3-5.3-2.8-5.6-7c-0.8-8.1,1.3-17,4.8-24.7c0-0.1,0.1-0.2,0.1-0.2
		c-0.2,0.1-0.3,0.1-0.6,0.2l-3.6,0.8c-1.7,0.3-3.6,0.9-5.8,1.5c0.3,4.2-2.2,16.7-3.4,23c-1.5,7.6-1.7,8.7-1.7,11.4
		c-0.1,2.1-3.4,3.7-8.7,4.5c-4.5,0.6-3.7-4.6-2.1-11.1C34,89.7,26,92.1,16.9,90.2C-7.9,85.3-1.7,41.6,12,22
		C28.4-1.3,53.2-5.2,64.2,6.1c10.5,11,1.4,32.9-7.9,35.6C51.8,43,44.5,32.8,46,31.3c12-9.6,14.8-20.4,11.6-22
		c-6.3-3.3-23,10.3-30.6,21.4c-14,21.2-15.6,50.8-6.7,52.1c5.3,0.9,14-2.4,24.8-23.1c-7.6,1.8-14.7,3.6-14.4,3.8
		c-0.6-0.5-1.5-1.4-1.5-1.2l-0.6-0.7c-0.8-1.3-2.1-4.7-0.8-7.4c2.8-5.6,36.8-12,38.6-6c0.5,1.8,1,3.6,0.9,4.8
		c1.8-3.2,4.5-5.7,7.4-5.7c2.4,0,5.9,1.5,7.6,3.7c0.5,0.8,0.3,1.8-0.2,3.2c-2.4,5.3-4.3,10.5-6,15.6c7.2-9,17.1-19.4,21.1-21.5
		c1-0.6,2-0.9,3-0.9c2.4,0,3.7,1,5.4,3.3C106.1,51.3,106.1,52.4,105.6,53.8z"/>
	<path class="st0" d="M254.2,22.1c-7.5-3.8-17.9,2.1-19.2,7.1c-0.1,0.3-0.3,1.8,1.8,1.8c21.2,0,16.9,26.2,8.1,36.8
		c-4.2,5.1-7.5,5.3-8.5,5.3l-0.7-0.2c-2.3-0.8-1.5-4.9,0.2-9.7c1.8-5.1,3.8-9.5,5.5-14c0.6-1.5,0.6-2.6,0.2-3.2
		c-1.7-2.2-5.2-3.7-7.6-3.7c-2.8,0-5.4,2.2-7.2,5.3c-6.5-8-17-5.2-23.4,7.2c-0.6,1.2-1.1,2.4-1.5,3.5c0,0,0,0,0,0
		c-2.3,4.8-7.5,16.1-11.5,14.5c-2.3-0.8-1.5-4.9,0.2-9.7c1.8-5.1,3.8-9.5,5.5-14c0.6-1.5,0.6-2.6,0.2-3.2c-1.7-2.2-5.2-3.7-7.6-3.7
		c-3.5,0-6.7,3.5-8.3,7.6c-1.5,3.2-2.7,6.9-3.5,10.8c-7.1,10.7-24.1,29.9-19.6,15.3c2.7-9.7,9-28.9,11.7-35c6.3-0.1,13-2.3,19.7-3.1
		c-1.7-1.8-3-3.9-2.3-7.9c-5.3,0-10,0.6-13.3,1.5c1.2-2.5,2.4-4.7,3.6-6.9c0.8-1.2,0.8-2.4,0.2-3.2c-1.7-2.2-5.2-3.7-7.6-3.7
		c-4.9,0.1-8,5-11.7,14c-18.4,1.2-25.9-6-24.1-9.4c0.1-0.3-0.1-1-1.8-0.9c-4.4,0.3-5.2,5.5-2.9,11.3c1.2,2.7,8.1,10.5,25,9
		c-1.8,4.5-7.2,21-8.1,24.6c-0.1,0.3-0.2,0.6-0.3,0.9c-2.4,4.4-5.4,8.5-7.9,7.4c-2.2-0.8-1.5-4.9,0.2-9.7c1.8-5.1,3.8-9.5,5.5-14
		c0.6-1.5,0.6-2.6,0.2-3.2c-1.7-2.2-5.2-3.7-7.5-3.7c-2.8,0-5.4,2.3-7.2,5.3c-6.5-8-17-5.2-23.4,7.2c-3.3,6.2-2.5,12.2-2.1,14.3
		c0.6,4.6,6.3,10.4,10.5,10.9c4,0.8,8.2-1.8,11.1-5.9c1.5,3.5,4.2,5.9,9,7.1c2.9,0.5,6.2,0.3,9.5-1.1c0.7,5.6,3.6,10.4,10.2,11.8
		c5.9,1.8,17.6-7.1,25-17.9c1.7,2.6,4.1,4.4,8,5.3c5.2,0.9,11.9-0.5,17-6.8c2.2,2.9,5.4,5.2,8,5.6c3.9,0.8,8.2-1.8,11-5.9
		c1.5,3.5,4.2,5.9,9,7.1c2.6,0.5,5.3,0.3,8-0.5C261.7,77.7,275.6,32.9,254.2,22.1z M125.3,59.2c-2,5.3-5.8,11.2-8.7,11.2
		c-2.8,0,2.1-19.7,9.6-14.1C125.9,57.2,125.6,58.2,125.3,59.2z M223.2,57.3c-2,5.3-5.8,11.2-8.7,11.2c-2.8,0,2.1-19.7,9.6-14.1
		C223.8,55.3,223.6,56.3,223.2,57.3z"/>
	<path class="st0" d="M196.4,26.4c-3.5,0-6.2,2.8-6.2,6.3s2.7,6.2,6.2,6.2s6.3-2.7,6.3-6.2S199.9,26.4,196.4,26.4z M209.1,39.8
		c-0.8-1.9-2.6-4.1-4.3-5.3c0.1,1.9-0.9,4-4,4.9c1.2,0.6,2.3,1.5,3.5,2.5C205.3,44.2,210,42.4,209.1,39.8z"/>
</g>
</svg>
